<svg width="22" height="18" viewBox="0 0 22 18" fill="none" xmlns="http://www.w3.org/2000/svg">
<path d="M18.6567 2.01849C21.1315 5.67966 22.3537 9.80935 21.8968 14.5636C21.8949 14.5837 21.8845 14.6022 21.8681 14.6143C19.994 15.9989 18.1782 16.8393 16.3879 17.3965C16.374 17.4008 16.359 17.4006 16.3452 17.3959C16.3314 17.3912 16.3194 17.3823 16.3109 17.3704C15.8973 16.7913 15.5215 16.1808 15.1923 15.5398C15.1734 15.502 15.1906 15.4565 15.2295 15.4417C15.8264 15.2154 16.3939 14.9442 16.9398 14.6231C16.9828 14.5978 16.9856 14.5357 16.9459 14.506C16.83 14.4194 16.7152 14.3285 16.6054 14.2375C16.5848 14.2207 16.5572 14.2174 16.5339 14.2287C12.9897 15.8755 9.1073 15.8755 5.52123 14.2287C5.49795 14.2182 5.47029 14.2218 5.45029 14.2384C5.34073 14.3293 5.22568 14.4194 5.11091 14.506C5.0712 14.5357 5.07448 14.5978 5.11776 14.6231C5.66367 14.9381 6.23122 15.2154 6.82725 15.4428C6.86587 15.4576 6.88422 15.502 6.86505 15.5398C6.54293 16.1817 6.16712 16.7921 5.74584 17.3712C5.72749 17.3946 5.69736 17.4054 5.66887 17.3965C3.88707 16.8393 2.07131 15.9989 0.197196 14.6143C0.181583 14.6022 0.170352 14.5829 0.168709 14.5627C-0.213125 10.4504 0.56506 6.28655 3.40581 2.01767C3.41266 2.00637 3.42306 1.99755 3.43512 1.99231C4.83289 1.34684 6.33037 0.871969 7.89551 0.600771C7.924 0.596361 7.95248 0.609591 7.96727 0.634946C8.16066 0.979455 8.3817 1.42125 8.53126 1.7823C10.181 1.52874 11.8566 1.52874 13.5408 1.7823C13.6904 1.42897 13.9038 0.979455 14.0963 0.634946C14.1032 0.622368 14.1138 0.61229 14.1267 0.606153C14.1396 0.600016 14.1541 0.598132 14.1681 0.600771C15.7341 0.872795 17.2315 1.34767 18.6282 1.99231C18.6406 1.99755 18.6507 2.00637 18.6567 2.01849ZM9.36998 9.83747C9.38724 8.62176 8.50633 7.6158 7.40055 7.6158C6.3038 7.6158 5.43139 8.61294 5.43139 9.83747C5.43139 11.0617 6.32106 12.0589 7.40055 12.0589C8.49757 12.0589 9.36998 11.0617 9.36998 9.83747ZM16.6511 9.83747C16.6684 8.62176 15.7875 7.6158 14.682 7.6158C13.5849 7.6158 12.7125 8.61294 12.7125 9.83747C12.7125 11.0617 13.6022 12.0589 14.682 12.0589C15.7875 12.0589 16.6511 11.0617 16.6511 9.83747Z" fill="white"/>
</svg>
