<svg width="16" height="16" viewBox="0 0 16 16" fill="none" xmlns="http://www.w3.org/2000/svg">
<g clip-path="url(#clip0_277_11640)">
<path d="M13.1045 3.34827C14.7543 5.78904 15.5691 8.54217 15.2645 11.7117C15.2633 11.7251 15.2563 11.7374 15.2454 11.7455C13.996 12.6686 12.7855 13.2288 11.5919 13.6003C11.5826 13.6031 11.5727 13.603 11.5635 13.5999C11.5543 13.5967 11.5463 13.5908 11.5406 13.5828C11.2649 13.1968 11.0143 12.7898 10.7948 12.3625C10.7822 12.3373 10.7937 12.307 10.8197 12.297C11.2176 12.1462 11.5959 11.9654 11.9599 11.7513C11.9886 11.7344 11.9904 11.6931 11.9639 11.6733C11.8867 11.6156 11.8101 11.5549 11.7369 11.4943C11.7232 11.4831 11.7048 11.4809 11.6893 11.4884C9.32649 12.5862 6.7382 12.5862 4.34749 11.4884C4.33197 11.4814 4.31352 11.4838 4.30019 11.4948C4.22715 11.5555 4.15046 11.6156 4.07394 11.6733C4.04746 11.6931 4.04966 11.7344 4.07851 11.7513C4.44245 11.9614 4.82081 12.1462 5.21817 12.2978C5.24391 12.3077 5.25615 12.3373 5.24337 12.3625C5.02862 12.7904 4.77808 13.1974 4.49723 13.5834C4.48499 13.599 4.46491 13.6062 4.44592 13.6003C3.25805 13.2288 2.04754 12.6686 0.79813 11.7455C0.787722 11.7374 0.780235 11.7245 0.779139 11.7111C0.524583 8.96955 1.04337 6.19363 2.9372 3.34772C2.94177 3.34018 2.94871 3.3343 2.95674 3.33081C3.88859 2.9005 4.88691 2.58392 5.93034 2.40312C5.94933 2.40018 5.96832 2.409 5.97818 2.4259C6.1071 2.65557 6.25447 2.95011 6.35417 3.1908C7.45402 3.02176 8.57104 3.02176 9.6939 3.1908C9.7936 2.95525 9.93585 2.65557 10.0642 2.4259C10.0688 2.41752 10.0759 2.4108 10.0845 2.40671C10.0931 2.40261 10.1027 2.40136 10.1121 2.40312C11.156 2.58447 12.1544 2.90105 13.0855 3.33081C13.0937 3.3343 13.1005 3.34018 13.1045 3.34827V3.34827ZM6.91332 8.56092C6.92482 7.75045 6.33756 7.0798 5.60037 7.0798C4.8692 7.0798 4.28759 7.74457 4.28759 8.56092C4.28759 9.37708 4.88071 10.0418 5.60037 10.0418C6.33171 10.0418 6.91332 9.37708 6.91332 8.56092V8.56092ZM11.7674 8.56092C11.7789 7.75045 11.1917 7.0798 10.4546 7.0798C9.7233 7.0798 9.14169 7.74457 9.14169 8.56092C9.14169 9.37708 9.7348 10.0418 10.4546 10.0418C11.1917 10.0418 11.7674 9.37708 11.7674 8.56092V8.56092Z" fill="white" fill-opacity="0.85"/>
</g>
<defs>
<clipPath id="clip0_277_11640">
<path d="M0 5.33333C0 2.38782 2.38781 0 5.33333 0H10.6667C13.6122 0 16 2.38781 16 5.33333V10.6667C16 13.6122 13.6122 16 10.6667 16H5.33333C2.38782 16 0 13.6122 0 10.6667V5.33333Z" fill="white"/>
</clipPath>
</defs>
</svg>
