<svg width="12" height="12" viewBox="0 0 12 12" fill="none" xmlns="http://www.w3.org/2000/svg">
<path fill-rule="evenodd" clip-rule="evenodd" d="M2 0C0.895431 0 0 0.895431 0 2V10C0 11.1046 0.895431 12 2 12H10C11.1046 12 12 11.1046 12 10V2C12 0.895431 11.1046 0 10 0H2ZM10.3536 4.35355C10.5488 4.15829 10.5488 3.84171 10.3536 3.64645C10.1583 3.45118 9.84171 3.45118 9.64645 3.64645L7 6.29289L5.35355 4.64645C5.15829 4.45118 4.84171 4.45118 4.64645 4.64645L1.64645 7.64645C1.45118 7.84171 1.45118 8.15829 1.64645 8.35355C1.84171 8.54882 2.15829 8.54882 2.35355 8.35355L5 5.70711L6.64645 7.35355C6.84171 7.54882 7.15829 7.54882 7.35355 7.35355L10.3536 4.35355Z" fill="white" fill-opacity="0.85"/>
</svg>
