<svg width="16" height="16" viewBox="0 0 16 16" fill="none" xmlns="http://www.w3.org/2000/svg">
<path fill-rule="evenodd" clip-rule="evenodd" d="M4 2C2.89543 2 2 2.89543 2 4V12C2 13.1046 2.89543 14 4 14H12C13.1046 14 14 13.1046 14 12V4C14 2.89543 13.1046 2 12 2H4ZM12.3536 6.35355C12.5488 6.15829 12.5488 5.84171 12.3536 5.64645C12.1583 5.45118 11.8417 5.45118 11.6464 5.64645L9 8.29289L7.35355 6.64645C7.15829 6.45118 6.84171 6.45118 6.64645 6.64645L3.64645 9.64645C3.45118 9.84171 3.45118 10.1583 3.64645 10.3536C3.84171 10.5488 4.15829 10.5488 4.35355 10.3536L7 7.70711L8.64645 9.35355C8.84171 9.54882 9.15829 9.54882 9.35355 9.35355L12.3536 6.35355Z" fill="white" fill-opacity="0.85"/>
</svg>
