<svg width="22" height="18" viewBox="0 0 22 18" fill="none" xmlns="http://www.w3.org/2000/svg">
<path d="M21.1178 2.60583C20.4573 2.89007 19.763 3.08799 19.0519 3.19472C19.3844 3.13773 19.8735 2.53934 20.0682 2.29713C20.3641 1.93179 20.5895 1.51472 20.7331 1.06711C20.7331 1.03387 20.7664 0.986378 20.7331 0.962633C20.7164 0.953488 20.6976 0.948696 20.6785 0.948696C20.6594 0.948696 20.6406 0.953488 20.6239 0.962633C19.8518 1.38076 19.03 1.69988 18.1781 1.91246C18.1484 1.92153 18.1168 1.92234 18.0867 1.91481C18.0566 1.90728 18.0291 1.89169 18.0071 1.86971C17.9408 1.79075 17.8694 1.71619 17.7934 1.64651C17.4459 1.33518 17.0517 1.08037 16.6251 0.891396C16.0493 0.655164 15.4274 0.552857 14.8062 0.592201C14.2035 0.630264 13.6151 0.79192 13.0775 1.06711C12.5482 1.35725 12.083 1.7514 11.7098 2.2259C11.3173 2.71427 11.0339 3.28105 10.8787 3.88809C10.7507 4.46551 10.7362 5.0623 10.836 5.64526C10.836 5.745 10.836 5.75924 10.7505 5.745C7.36435 5.24634 4.58612 4.04481 2.31604 1.46604C2.21631 1.35206 2.16407 1.35206 2.08333 1.46604C1.09552 2.96676 1.57518 5.34132 2.80995 6.51435C2.97617 6.67107 3.14714 6.82305 3.3276 6.96552C2.76147 6.92533 2.20916 6.77191 1.7034 6.51435C1.60842 6.45261 1.55618 6.48586 1.55143 6.59984C1.53797 6.75785 1.53797 6.91673 1.55143 7.07475C1.65053 7.83204 1.94897 8.54943 2.41625 9.15355C2.88352 9.75767 3.50287 10.2269 4.21094 10.5131C4.38355 10.587 4.56341 10.6428 4.74759 10.6793C4.22349 10.7825 3.68596 10.7986 3.15663 10.7268C3.04265 10.7031 2.99991 10.7648 3.04266 10.874C3.74078 12.7737 5.25574 13.3531 6.36704 13.676C6.51901 13.6998 6.67098 13.6998 6.84195 13.7378C6.84195 13.7378 6.84195 13.7378 6.81346 13.7663C6.48577 14.3646 5.16076 14.7683 4.55287 14.9773C3.44332 15.3758 2.26034 15.5282 1.08602 15.4237C0.900803 15.3952 0.858061 15.4 0.81057 15.4237C0.763078 15.4474 0.81057 15.4997 0.86281 15.5472C1.10027 15.7039 1.33772 15.8416 1.58468 15.9746C2.31986 16.3756 3.0971 16.6941 3.90225 16.9244C8.07197 18.0737 12.7641 17.2284 15.8938 14.1177C18.3538 11.6766 19.2182 8.30952 19.2182 4.93764C19.2182 4.80942 19.3749 4.73343 19.4651 4.66694C20.0875 4.18201 20.6362 3.60931 21.0941 2.96676C21.1733 2.87098 21.214 2.74903 21.208 2.62482C21.208 2.55359 21.208 2.56783 21.1178 2.60583Z" fill="white" fill-opacity="0.65"/>
</svg>
