<svg width="24" height="24" viewBox="0 0 24 24" fill="none" xmlns="http://www.w3.org/2000/svg">
<path fill-rule="evenodd" clip-rule="evenodd" d="M11 17C7.68629 17 5 14.3137 5 11C5 7.68629 7.68629 5 11 5C14.3137 5 17 7.68629 17 11C17 14.3137 14.3137 17 11 17ZM4 11C4 7.13401 7.13401 4 11 4C14.866 4 18 7.13401 18 11C18 12.753 17.3556 14.3556 16.2907 15.5836L19.8536 19.1464C20.0488 19.3417 20.0488 19.6583 19.8536 19.8536C19.6583 20.0488 19.3417 20.0488 19.1464 19.8536L15.5836 16.2907C14.3556 17.3556 12.753 18 11 18C7.13401 18 4 14.866 4 11Z" fill="white" fill-opacity="0.45"/>
</svg>
