<svg width="16" height="16" viewBox="0 0 16 16" fill="none" xmlns="http://www.w3.org/2000/svg">
<path d="M7.61808 1.54623C7.79073 1.26063 8.20666 1.26063 8.37932 1.54623L10.3387 4.78732C10.4007 4.88992 10.5019 4.9631 10.6191 4.99011L14.321 5.84362C14.6472 5.91882 14.7758 6.31261 14.5563 6.56432L12.0653 9.42093C11.9864 9.51136 11.9478 9.62976 11.9582 9.74906L12.2867 13.5176C12.3157 13.8497 11.9792 14.0931 11.6709 13.9631L8.17199 12.4875C8.06123 12.4407 7.93617 12.4407 7.82541 12.4875L4.32652 13.9631C4.01821 14.0931 3.68171 13.8497 3.71066 13.5176L4.03921 9.74906C4.04961 9.62976 4.01097 9.51136 3.93211 9.42093L1.44113 6.56432C1.22164 6.31261 1.35016 5.91882 1.67637 5.84362L5.37831 4.99011C5.4955 4.9631 5.59667 4.88992 5.6587 4.78732L7.61808 1.54623Z" stroke="white" stroke-opacity="0.85"/>
</svg>
