<svg width="80" height="80" viewBox="0 0 80 80" fill="none" xmlns="http://www.w3.org/2000/svg">
<g clip-path="url(#clip0_214_10304)">
<path fill-rule="evenodd" clip-rule="evenodd" d="M20.492 41.5619C20.5055 41.5753 20.5191 41.5885 20.5329 41.6015L28.3494 49.4179C29.0436 50.1122 30.1692 50.1122 30.8635 49.4179C31.5578 48.7237 31.5578 47.598 30.8635 46.9038L13.2644 29.3047C12.223 28.2633 12.223 26.5748 13.2644 25.5334C14.3058 24.492 15.9942 24.492 17.0356 25.5334L20.1321 28.6299C20.1474 28.6455 20.1627 28.661 20.1782 28.6765L34.6346 43.1329C35.3289 43.8271 36.4545 43.8271 37.1488 43.1329C37.843 42.4386 37.843 41.313 37.1488 40.6187L24.6026 28.0725C24.5945 28.0641 24.5864 28.0558 24.5781 28.0476L22.6624 26.1318C21.6511 25.0882 21.6611 23.4224 22.6924 22.3911C23.7338 21.3497 25.4222 21.3497 26.4636 22.3911L38.4058 34.3333C38.4419 34.3694 38.4791 34.4035 38.5173 34.4358C38.5828 34.5077 38.6503 34.5784 38.7198 34.6479L46.8908 42.8189C47.5851 43.5132 48.7107 43.5132 49.405 42.8189C50.0992 42.1246 50.0992 40.999 49.405 40.3048L41.234 32.1337C40.1926 31.0923 40.1926 29.4039 41.234 28.3625C42.2754 27.3211 43.9638 27.3211 45.0052 28.3625L56.6332 39.9905C56.6395 39.9968 56.6458 40.003 56.6522 40.0092C64.617 47.9948 64.6106 60.9251 56.633 68.9028C48.6489 76.8869 35.7042 76.8869 27.7202 68.9028L22.3778 63.5604L16.0922 57.2748L9.17847 50.3611C8.13707 49.3197 8.13707 47.6313 9.17847 46.5899C10.2098 45.5586 11.8756 45.5486 12.9192 46.5599L23.0062 56.6468C23.7005 57.3411 24.8261 57.3411 25.5204 56.6468C26.2146 55.9526 26.2146 54.8269 25.5204 54.1327L19.8881 48.5004C19.88 48.492 19.8719 48.4837 19.8636 48.4755L15.4639 44.0757C15.4485 44.0603 15.433 44.045 15.4174 44.0298L10.4354 39.0477C9.39402 38.0063 9.39402 36.3179 10.4354 35.2765C11.4768 34.2351 13.1653 34.2351 14.2067 35.2765L20.492 41.5619ZM56.4558 34.7848C56.4625 34.7913 56.4692 34.7979 56.4758 34.8045L59.1471 37.4758C68.5197 46.8484 68.5197 62.0444 59.1471 71.417C49.7746 80.7895 34.5786 80.7895 25.206 71.417L19.8636 66.0746L13.578 59.789L6.66432 52.8753C4.23439 50.4453 4.23439 46.5056 6.66431 44.0757C7.33902 43.401 8.13012 42.9136 8.97299 42.6136L7.92126 41.5619C5.49133 39.132 5.49133 35.1923 7.92126 32.7623C8.60762 32.076 9.41445 31.5835 10.2737 31.2849C8.33234 28.8423 8.4912 25.2783 10.7503 23.0193C12.9075 20.862 16.2547 20.62 18.679 22.293C18.9752 21.41 19.4749 20.5802 20.1782 19.8769C22.6081 17.447 26.5478 17.447 28.9778 19.8769L37.2577 28.1569C37.5578 27.3141 38.0451 26.523 38.7198 25.8483C41.1497 23.4184 45.0894 23.4184 47.5193 25.8483L56.4558 34.7848Z" fill="white" fill-opacity="0.85"/>
<path fill-rule="evenodd" clip-rule="evenodd" d="M46.0872 77.5618C53.8239 79.2721 62.243 77.1182 68.2611 71.1001C77.6337 61.7275 77.6337 46.5316 68.2611 37.159L65.5898 34.4877L65.5698 34.468L56.6333 25.5315C54.2033 23.1016 50.2636 23.1016 47.8337 25.5315C47.728 25.6372 47.6269 25.7458 47.5303 25.857L50.0595 28.3862C50.1446 28.2668 50.2407 28.1528 50.3479 28.0457C51.3893 27.0043 53.0777 27.0043 54.1191 28.0457L65.7471 39.6736L65.7661 39.6924C73.731 47.678 73.7246 60.6083 65.7469 68.586C61.2182 73.1147 55.0934 75.0746 49.1832 74.4658L46.0872 77.5618Z" fill="white" fill-opacity="0.85"/>
<rect x="38.2227" y="2.66602" width="3.55556" height="13.3333" rx="1.77778" fill="white" fill-opacity="0.85"/>
<rect x="25.7793" y="8" width="3.55556" height="9.77778" rx="1.77778" transform="rotate(-30 25.7793 8)" fill="white" fill-opacity="0.85"/>
<rect width="3.55556" height="9.77778" rx="1.77778" transform="matrix(-0.866025 -0.5 -0.5 0.866025 54.1914 8)" fill="white" fill-opacity="0.85"/>
</g>
<defs>
<clipPath id="clip0_214_10304">
<rect width="80" height="80" fill="white"/>
</clipPath>
</defs>
</svg>
