<svg width="32" height="32" viewBox="0 0 32 32" fill="none" xmlns="http://www.w3.org/2000/svg">
<path fill-rule="evenodd" clip-rule="evenodd" d="M25 6H7C5.89543 6 5 6.89543 5 8V24C5 25.1046 5.89543 26 7 26H25C26.1046 26 27 25.1046 27 24V21.5H20.5C17.4624 21.5 15 19.0376 15 16C15 12.9624 17.4624 10.5 20.5 10.5H27V8C27 6.89543 26.1046 6 25 6ZM20.5 12.5H27V19.5H20.5C18.567 19.5 17 17.933 17 16C17 14.067 18.567 12.5 20.5 12.5ZM29 24V21.5V19.5V12.5V10.5V8C29 5.79086 27.2091 4 25 4H7C4.79086 4 3 5.79086 3 8V24C3 26.2091 4.79086 28 7 28H25C27.2091 28 29 26.2091 29 24ZM20.5 14.5C19.6716 14.5 19 15.1716 19 16C19 16.8284 19.6716 17.5 20.5 17.5C21.3284 17.5 22 16.8284 22 16C22 15.1716 21.3284 14.5 20.5 14.5Z" fill="rgba(255,255,255,0.65)"/>
</svg>
