<svg width="48" height="48" viewBox="0 0 48 48" fill="none" xmlns="http://www.w3.org/2000/svg">
<g clip-path="url(#clip0_312_14755)">
<path fill-rule="evenodd" clip-rule="evenodd" d="M11.7068 9.70739C11.3163 9.31686 10.6831 9.31686 10.2926 9.70739C9.90209 10.0979 9.90209 10.7311 10.2926 11.1216L35.7485 36.5774C36.139 36.968 36.7721 36.968 37.1627 36.5774C37.5532 36.1869 37.5532 35.5538 37.1627 35.1632L11.7068 9.70739ZM8.19433 21.8096L13.1734 16.8305L14.5876 18.2447L9.60854 23.2238C5.31278 27.5195 5.31278 34.4843 9.60854 38.7801C13.9043 43.0759 20.8691 43.0759 25.1649 38.7801L30.1439 33.8011L31.5582 35.2153L26.5791 40.1943C21.5023 45.2711 13.2711 45.2711 8.19433 40.1943C3.11751 35.1175 3.11751 26.8864 8.19433 21.8096ZM39.307 24.638L34.3866 29.5584L35.8008 30.9726L40.7212 26.0522C45.7981 20.9754 45.7981 12.7442 40.7212 7.66742C35.6444 2.5906 27.4133 2.5906 22.3365 7.66742L17.416 12.5879L18.8302 14.0021L23.7507 9.08163C28.0464 4.78587 35.0113 4.78586 39.307 9.08163C43.6028 13.3774 43.6028 20.3422 39.307 24.638Z" fill="white" fill-opacity="0.85"/>
</g>
<defs>
<clipPath id="clip0_312_14755">
<rect width="48" height="48" fill="white"/>
</clipPath>
</defs>
</svg>
