<svg width="32" height="32" viewBox="0 0 32 32" fill="none" xmlns="http://www.w3.org/2000/svg">
<path fill-rule="evenodd" clip-rule="evenodd" d="M16 3C8.8203 3 3 8.8203 3 16C3 23.1797 8.8203 29 16 29C23.1797 29 29 23.1797 29 16C29 8.8203 23.1797 3 16 3ZM5 16C5 22.0751 9.92487 27 16 27C22.0751 27 27 22.0751 27 16C27 9.92487 22.0751 5 16 5C9.92487 5 5 9.92487 5 16Z" fill="rgba(255,255,255,0.65)"/>
<path fill-rule="evenodd" clip-rule="evenodd" d="M14 13C14 14.1046 14.8954 15 16 15C17.1046 15 18 14.1046 18 13C18 11.8954 17.1046 11 16 11C14.8954 11 14 11.8954 14 13ZM16 9C13.7909 9 12 10.7909 12 13C12 15.2091 13.7909 17 16 17C18.2091 17 20 15.2091 20 13C20 10.7909 18.2091 9 16 9Z" fill="rgba(255,255,255,0.65)"/>
<path fill-rule="evenodd" clip-rule="evenodd" d="M23.5505 23.9996C21.5788 25.8617 18.9227 27 16 27C13.0777 27 10.4219 25.862 8.45035 24.0004C10.422 22.1383 13.0781 21 16.0008 21C18.9231 21 21.5789 22.138 23.5505 23.9996ZM16 29C20.1629 29 23.8688 27.0433 26.2481 23.9995C23.8687 20.9562 20.1632 19 16.0008 19C11.8379 19 8.13206 20.9567 5.75272 24.0005C8.13209 27.0438 11.8376 29 16 29Z" fill="rgba(255,255,255,0.50)"/>
</svg>
