<svg width="48" height="48" viewBox="0 0 48 48" fill="none" xmlns="http://www.w3.org/2000/svg">
<path fill-rule="evenodd" clip-rule="evenodd" d="M3.04715 9.30169C2.39676 10.013 2 10.9602 2 12V36C2 38.2091 3.79086 40 6 40H42C44.2091 40 46 38.2091 46 36V12C46 9.79086 44.2091 8 42 8H6C5.56399 8 5.14372 8.06976 4.75085 8.19873C4.31084 8.34317 3.9045 8.56188 3.54666 8.84004C3.36725 8.9795 3.20031 9.13421 3.04715 9.30169ZM30.0409 25.4551L26.9387 28.8159C25.3548 30.5317 22.6441 30.5317 21.0602 28.8159L17.9585 25.4557L5.48196 37.9323C5.64718 37.9764 5.82084 38 6 38H42C42.1792 38 42.3528 37.9764 42.518 37.9323L30.0409 25.4551ZM29.1523 23.4691L25.4691 27.4593C24.6771 28.3172 23.3218 28.3172 22.5298 27.4593L18.85 23.4728C18.8103 23.4089 18.7626 23.3484 18.7071 23.2929C18.6712 23.257 18.6333 23.2244 18.5937 23.1951L6.41357 10H41.5853L29.4028 23.1978C29.3644 23.2264 29.3277 23.2581 29.2929 23.2929C29.2384 23.3474 29.1916 23.4065 29.1523 23.4691ZM31.3985 23.9843L43.9323 36.518C43.9764 36.3528 44 36.1792 44 36V12C44 11.5413 43.8456 11.1187 43.5859 10.7813L31.3985 23.9843ZM4.41356 10.782L16.6009 23.9849L4.06774 36.518C4.02356 36.3528 4 36.1792 4 36V12C4 11.5416 4.1542 11.1193 4.41356 10.782Z" fill="white" fill-opacity="0.85"/>
</svg>
