<svg width="24" height="24" viewBox="0 0 24 24" fill="none" xmlns="http://www.w3.org/2000/svg">
<path fill-rule="evenodd" clip-rule="evenodd" d="M1.52358 4.65084C1.19838 5.00652 1 5.48009 1 6V18C1 19.1046 1.89543 20 3 20H21C22.1046 20 23 19.1046 23 18V6C23 4.89543 22.1046 4 21 4H3C2.782 4 2.57186 4.03488 2.37543 4.09936C2.15542 4.17158 1.95225 4.28094 1.77333 4.42002C1.68363 4.48975 1.60016 4.5671 1.52358 4.65084ZM15.0204 12.7276L13.4693 14.4079C12.6774 15.2658 11.322 15.2658 10.5301 14.4079L8.97927 12.7278L2.74098 18.9661C2.82359 18.9882 2.91042 19 3 19H21C21.0896 19 21.1764 18.9882 21.259 18.9661L15.0204 12.7276ZM14.5762 11.7346L12.7345 13.7296C12.3386 14.1586 11.6609 14.1586 11.2649 13.7296L9.42501 11.7364C9.40514 11.7044 9.38132 11.6742 9.35355 11.6464C9.33562 11.6285 9.31665 11.6122 9.29685 11.5976L3.20678 5H20.7927L14.7014 11.5989C14.6822 11.6132 14.6639 11.629 14.6464 11.6464C14.6192 11.6737 14.5958 11.7033 14.5762 11.7346ZM15.6993 11.9922L21.9661 18.259C21.9882 18.1764 22 18.0896 22 18V6C22 5.77066 21.9228 5.55936 21.793 5.39065L15.6993 11.9922ZM2.20678 5.39098L8.30044 11.9924L2.03387 18.259C2.01178 18.1764 2 18.0896 2 18V6C2 5.77081 2.0771 5.55963 2.20678 5.39098Z" fill="white" fill-opacity="0.65"/>
</svg>
