<svg width="80" height="80" viewBox="0 0 80 80" fill="none" xmlns="http://www.w3.org/2000/svg">
<path d="M18.5 32C18.5 30.6193 19.6193 29.5 21 29.5H59C60.3807 29.5 61.5 30.6193 61.5 32V62.2162C48.5744 71.1998 31.4256 71.1998 18.5 62.2162V32Z" stroke="white" stroke-width="3" stroke-linejoin="round"/>
<path d="M25.5 22C25.5 17.3056 29.3056 13.5 34 13.5H46C50.6944 13.5 54.5 17.3056 54.5 22V29.5H25.5V22Z" stroke="white" stroke-width="3"/>
<path fill-rule="evenodd" clip-rule="evenodd" d="M40 39C37.2386 39 35 41.2386 35 44C35 45.6666 35.8154 47.1428 37.069 48.0513L36.1772 53.8479C36.084 54.4537 36.5527 55 37.1656 55H42.8344C43.4473 55 43.916 54.4537 43.8228 53.8479L42.931 48.0513C44.1846 47.1428 45 45.6666 45 44C45 41.2386 42.7614 39 40 39Z" fill="white"/>
</svg>
