<svg width="112" height="112" viewBox="0 0 112 112" fill="none" xmlns="http://www.w3.org/2000/svg">
<g opacity="0.2">
<path fill-rule="evenodd" clip-rule="evenodd" d="M56 0C25.0721 0 0 25.0721 0 56C0 86.9279 25.0721 112 56 112C86.9279 112 112 86.9279 112 56C112 25.0721 86.9279 0 56 0ZM8.61539 56C8.61539 82.1698 29.8302 103.385 56 103.385C82.1698 103.385 103.385 82.1698 103.385 56C103.385 29.8302 82.1698 8.61539 56 8.61539C29.8302 8.61539 8.61539 29.8302 8.61539 56Z" fill="white"/>
<path fill-rule="evenodd" clip-rule="evenodd" d="M47.3846 43.0769C47.3846 47.8351 51.2419 51.6923 56 51.6923C60.7581 51.6923 64.6154 47.8351 64.6154 43.0769C64.6154 38.3188 60.7581 34.4615 56 34.4615C51.2419 34.4615 47.3846 38.3188 47.3846 43.0769ZM56 25.8462C46.4837 25.8462 38.7692 33.5606 38.7692 43.0769C38.7692 52.5932 46.4837 60.3077 56 60.3077C65.5163 60.3077 73.2308 52.5932 73.2308 43.0769C73.2308 33.5606 65.5163 25.8462 56 25.8462Z" fill="white"/>
<path fill-rule="evenodd" clip-rule="evenodd" d="M88.5251 90.4599C80.0317 98.4811 68.59 103.385 56 103.385C43.4117 103.385 31.9715 98.4825 23.4784 90.4632C31.9718 82.442 43.4135 77.5385 56.0035 77.5385C68.5918 77.5385 80.032 82.4406 88.5251 90.4599ZM56 112C73.9324 112 89.8962 103.571 100.146 90.4593C89.896 77.35 73.9339 68.9231 56.0035 68.9231C38.0711 68.9231 22.1073 77.3519 11.8579 90.4638C22.1075 103.573 38.0696 112 56 112Z" fill="white"/>
</g>
</svg>
